<?xml version="1.0" encoding="utf-8"?>
<!-- Generator: Adobe Illustrator 27.5.0, SVG Export Plug-In . SVG Version: 6.00 Build 0)  -->
<svg version="1.1" id="Layer_1" xmlns="http://www.w3.org/2000/svg" xmlns:xlink="http://www.w3.org/1999/xlink" x="0px" y="0px"
	 viewBox="0 0 512 512" style="enable-background:new 0 0 512 512;" xml:space="preserve">
<g>
	<path d="M244.69,75.45c6.24-6.26,16.37-6.27,22.63-0.03l0.03,0.03l48,48c6.26,6.26,6.26,16.4,0,22.65c-6.26,6.26-16.4,6.26-22.65,0
		l-20.67-20.7v57.37c0,8.84-7.16,16-16,16c-8.84,0-16-7.16-16-16V125.4l-20.67,20.7c-6.26,6.26-16.4,6.26-22.65,0
		c-6.26-6.26-6.26-16.4,0-22.65L244.69,75.45z M75,177.74c6.25-6.25,16.37-6.25,22.62,0l45.25,45.25
		c6.14,6.36,5.96,16.48-0.39,22.62c-6.2,5.99-16.03,5.99-22.23,0L75,200.37C68.76,194.12,68.76,183.99,75,177.74z M437.03,177.74
		c6.25,6.25,6.25,16.37,0,22.62l-45.25,45.25c-6.14,6.36-16.27,6.53-22.62,0.39c-6.36-6.14-6.53-16.27-0.39-22.62l0.39-0.39
		l45.25-45.25C420.65,171.5,430.78,171.5,437.03,177.74z M256.02,262.76c53.02-0.02,96.01,42.95,96.02,95.96
		c0.01,16.86-4.43,33.42-12.86,48.03H172.82c-26.51-45.91-10.78-104.62,35.14-131.13C222.57,267.19,239.14,262.75,256.02,262.76z
		 M374.73,406.75c26.47-65.55-5.21-140.14-70.75-166.61s-140.14,5.21-166.61,70.75c-12.42,30.74-12.42,65.11,0,95.85H16
		c-8.84,0-16,7.16-16,16s7.16,16,16,16h479.97c8.84,0,16-7.16,16-16s-7.16-16-16-16H374.7H374.73z M0.03,358.76
		c0-8.84,7.16-16,16-16h64c8.84,0,16,7.16,16,16s-7.16,16-16,16h-64C7.19,374.76,0.03,367.59,0.03,358.76z M416.01,358.76
		c0-8.84,7.16-16,16-16h64c8.84,0,16,7.16,16,16s-7.16,16-16,16h-64C423.17,374.76,416.01,367.59,416.01,358.76z"/>
</g>
</svg>
